<svg version="1" xmlns="http://www.w3.org/2000/svg" width="853.333" height="853.333" viewBox="0 0 640.000000 640.000000"><path d="M267.5 17.5C240 27 213.9 36 209.6 37.5l-8 2.8 8.5 3c14.1 5 100.4 36.1 133.9 48.2 17.3 6.3 57.5 20.8 89.3 32.3l57.8 20.9 31.2-12.9c17.2-7.2 34.6-14.1 38.7-15.5 4.1-1.4 9.7-3.5 12.4-4.5 6.2-2.5 8.3-2.5 23.4.1 22.5 3.9 24.7 2.1-26.5 22-24.6 9.5-48.8 19.3-53.8 21.6-4.9 2.3-13.6 5.9-19.2 8l-10.3 3.8v111.5l-3.1 1.1c-1.8.6-3.4 1.1-3.5 1.1-.2 0-.4-24.8-.4-55 0-37.1-.3-55-1-55-.6 0-7 2.3-14.3 5.1-7.3 2.9-14.3 5.3-15.7 5.5-1.4.2-28.6 10.5-60.5 23-31.9 12.4-60.5 23.5-63.6 24.7l-5.5 2.1-9.5-3.8c-5.2-2.1-69.9-27.3-143.9-56.1-74-28.7-136.1-52.9-138-53.7l-3.5-1.4 4.5-1.6c13.7-4.7 15.9-5.1 26.5-5.4l10.9-.2 13.6 5.3c7.4 2.9 62.3 26.5 122 52.4 77.9 33.8 109.9 47.3 113.6 47.7 4.9.6 6.9-.1 50.3-18.1 42.5-17.6 45.5-18.7 49.7-18 3.3.5 5.7.2 9-1.2 4.7-1.9 5.3-2.7 2.8-3.7-1-.4-40.9-15.5-88.8-33.6-80.3-30.3-163.4-61.8-191.7-72.6l-11.7-4.5-51.3 17.7c-28.3 9.7-58 19.8-66.2 22.6l-14.7 5v6.1c.1 9.9 18.6 381.7 19.1 382.1.2.2 65.2 31.6 144.4 69.9 79.2 38.2 146.1 70.5 148.7 71.8l4.7 2.2 111.8-53.6c61.5-29.5 129.1-61.8 150.3-72l38.5-18.3.3-5c.8-14.3 16.2-373.4 16.2-377.9v-5.3l-13.2-4.5c-7.3-2.5-68.6-23.5-136.3-46.7-67.6-23.2-132.7-45.5-144.6-49.6-12-4.1-22.5-7.4-23.5-7.3-1.1.1-24.4 7.9-51.9 17.4zm-23.3 229.6c21.5 8.3 40.8 15.7 43 16.6l3.8 1.5v55.5c0 53.3-.1 55.5-1.8 55.1-1-.3-20.6-9-43.5-19.4L204 337.6v-52.8c0-29 .2-52.8.5-52.8s18.2 6.8 39.7 15.1z"/><path d="M211.5 253.1c-.4 1.7-.4 3.3-.1 3.6.3.3 7.2 3 15.3 5.9 13.4 4.7 14.9 5.1 16.1 3.6 2-2.6 1.4-4.9-1.5-6.1-3.3-1.3-28.4-10.1-28.8-10.1-.2 0-.6 1.4-1 3.1zM211.2 271.9c-.9 2.4-.8 3.1.6 3.6.9.4 11.7 4.2 23.9 8.6 12.3 4.4 22.9 8.2 23.7 8.5.9.3 1.8-.6 2.5-2.7.6-1.8 1-3.4.8-3.6-.7-.7-47.9-17.3-49.2-17.3-.7 0-1.8 1.3-2.3 2.9zM211 310.8c0 14 .3 19.2 1.3 19.9 1.1.9 6 3.2 25.5 11.9l5.2 2.4-.2-20.6-.3-20.6-14-5.4c-7.7-3-14.8-5.7-15.7-6-1.7-.5-1.8.8-1.8 18.4zM255.2 304c-.7 1.8-.7 3.2-.2 3.5 1.6 1 12.2 4.5 13.6 4.5 1.7 0 3.7-6 2.1-6.5-4.8-1.8-13.1-4.5-13.8-4.5-.4 0-1.2 1.3-1.7 3zM255.1 318.3c-.6 1.7-1 3.2-.8 3.4.6.5 15 5.3 15.2 5 .1-.1.7-1.6 1.2-3.3l1.1-3-7.9-2.6-7.8-2.6-1 3.1zM255.1 333.2c-.6 1.7-1 3.2-.9 3.3.8.6 13.4 4.5 14.4 4.5 1.8 0 3.7-6 2.1-6.5-4.8-1.8-13.1-4.5-13.8-4.5-.4 0-1.2 1.4-1.8 3.2zM255.1 347.3c-.6 1.6-1 3.1-.9 3.3.5.4 14 5.4 14.7 5.4.6 0 3.3-6.2 2.8-6.5-.1-.1-3.7-1.4-7.9-2.8l-7.7-2.5-1 3.1z"/></svg>